<svg xmlns="http://www.w3.org/2000/svg" width="918.303955078125" height="926.390380859375" viewBox="-456.4914855957031 -462.0967102050781 918.303955078125 926.390380859375"><title>Neo4j Graph Visualization</title><desc>Created using Neo4j (http://www.neo4j.com/)</desc><g class="layer relationships"><g class="relationship" transform="translate(20.485768138708337 178.75560689094434) rotate(435.9743714355664)"><path class="b-outline" fill="#A5ABB6" stroke="none" d="M 21.40063509461097,12.933012701892217 L 21.90063509461097,12.06698729810778 A 97.35197040206123 97.35197040206123 0 0 0 42.93263647340591,21.102318268974756 L 42.64867731255824,22.06115464446887 A 98.35197040206123 98.35197040206123 0 0 1 21.40063509461097,12.933012701892217 Z M 94.07537087266009,23.26120934515005 L 93.83644581115948,22.29017133611697 A 97.35197040206123 97.35197040206123 0 0 0 115.2670082831379,14.245714866884782 L 113.88982851565319,11.580498949171782 L 121.71537538571569,11.476498062372624 L 117.1032479731175,17.799336090502116 L 115.7260682056328,15.134120172789117 A 98.35197040206123 98.35197040206123 0 0 1 94.07537087266009,23.26120934515005"/><text text-anchor="middle" pointer-events="none" font-size="8px" fill="#000000" x="68.29384163940188" y="28.58304724418275" font-family="Helvetica Neue, Helvetica, Arial, sans-serif">PRODUCED</text></g><g class="relationship" transform="translate(20.485768138708337 178.75560689094434) rotate(435.9743714355664)"><path class="b-outline" fill="#A5ABB6" stroke="none" d="M 25 0.5 L 45.017441516662046 0.5 L 45.017441516662046 -0.5 L 25 -0.5 Z M 91.90806651666205 0.5 L 111.92550803332409 0.5 L 111.92550803332409 3.5 L 118.92550803332409 0 L 111.92550803332409 -3.5 L 111.92550803332409 -0.5 L 91.90806651666205 -0.5 Z"/><text text-anchor="middle" pointer-events="none" font-size="8px" fill="#000000" x="68.46275401666205" y="3" font-family="Helvetica Neue, Helvetica, Arial, sans-serif">DIRECTED</text></g><g class="relationship" transform="translate(20.485768138708337 178.75560689094434) rotate(435.9743714355664)"><path class="b-outline" fill="#A5ABB6" stroke="none" d="M 21.40063509461097,-12.933012701892217 L 21.90063509461097,-12.06698729810778 A 97.35197040206123 97.35197040206123 0 0 1 50.65177304715411,-23.0488753202724 L 50.447104901597335,-24.02770674099527 A 98.35197040206123 98.35197040206123 0 0 0 21.40063509461097,-12.933012701892217 Z M 86.1937016612726,-24.8618624781256 L 86.03491397962485,-23.874549725165863 A 97.35197040206123 97.35197040206123 0 0 1 115.2670082831379,-14.245714866884782 L 113.88982851565319,-11.580498949171782 L 121.71537538571569,-11.476498062372624 L 117.1032479731175,-17.799336090502116 L 115.7260682056328,-15.134120172789117 A 98.35197040206123 98.35197040206123 0 0 0 86.1937016612726,-24.8618624781256"/><text text-anchor="middle" pointer-events="none" font-size="8px" fill="#000000" x="68.29384163940189" y="-22.58304724418275" font-family="Helvetica Neue, Helvetica, Arial, sans-serif">WROTE</text></g><g class="relationship" transform="translate(236.99571028110051 302.61277433968655) rotate(327.76189068558415)"><path class="b-outline" fill="#A5ABB6" stroke="none" d="M 24.018736134675446,6.953439040707552 L 24.277555179777966,5.987513214418485 A 176.31595684649335 176.31595684649335 0 0 0 49.97975477855578,10.865115079283129 L 49.86670926443976,11.858704889888202 A 177.31595684649335 177.31595684649335 0 0 1 24.018736134675446,6.953439040707552 Z M 85.6775181916785,12.293024964758928 L 85.58860326430846,11.296985740786909 A 176.31595684649335 176.31595684649335 0 0 0 111.40153825987503,7.044168899892332 L 110.69558873208148,4.128412520458678 L 118.32262806651914,5.882912731612975 L 112.3428042969331,10.931844072470538 L 111.63685476913955,8.016087693036884 A 177.31595684649335 177.31595684649335 0 0 1 85.6775181916785,12.293024964758928"/><text text-anchor="middle" pointer-events="none" font-size="8px" fill="#000000" x="67.76718403268137" y="15.482331009498381" font-family="Helvetica Neue, Helvetica, Arial, sans-serif">WROTE</text></g><g class="relationship" transform="translate(236.99571028110051 302.61277433968655) rotate(327.76189068558415)"><path class="b-outline" fill="#A5ABB6" stroke="none" d="M 24.018736134675446,-6.953439040707552 L 24.277555179777966,-5.987513214418485 A 176.31595684649335 176.31595684649335 0 0 1 44.48316600775708,-10.152060575131003 L 44.33894584065385,-11.141606199850116 A 177.31595684649335 177.31595684649335 0 0 0 24.018736134675446,-6.953439040707552 Z M 91.22104731707732,-11.710200946333202 L 91.10086882367528,-10.717448646046961 A 176.31595684649335 176.31595684649335 0 0 1 111.40153825987503,-7.044168899892332 L 110.69558873208148,-4.128412520458678 L 118.32262806651914,-5.882912731612975 L 112.3428042969331,-10.931844072470538 L 111.63685476913955,-8.016087693036884 A 177.31595684649335 177.31595684649335 0 0 0 91.22104731707732,-11.710200946333202"/><text text-anchor="middle" pointer-events="none" font-size="8px" fill="#000000" x="67.76718403268133" y="-9.482331009498381" font-family="Helvetica Neue, Helvetica, Arial, sans-serif">DIRECTED</text></g><g class="relationship" transform="translate(259.47905857276504 120.53285603679237) rotate(407.2020128642429)"><path class="b-outline" fill="#A5ABB6" stroke="none" d="M 24.018736134675446,6.953439040707552 L 24.277555179777966,5.987513214418485 A 179.94484319249926 179.94484319249926 0 0 0 50.898952670307615,11.009468534451116 L 50.788075611306084,12.003302664367766 A 180.94484319249926 180.94484319249926 0 0 1 24.018736134675446,6.953439040707552 Z M 86.59935103836268,12.432335883185402 L 86.51231543627247,11.436130681447935 A 179.94484319249926 179.94484319249926 0 0 0 113.24638483915851,7.053394920892554 L 112.53957363377451,4.137847301671833 L 120.16713115157086,5.890093378200008 L 114.1887997796705,10.940791746520182 L 113.4819885742865,8.02524412729946 A 180.94484319249926 180.94484319249926 0 0 1 86.59935103836268,12.432335883185402"/><text text-anchor="middle" pointer-events="none" font-size="8px" fill="#000000" x="68.68906232508873" y="15.606036842015158" font-family="Helvetica Neue, Helvetica, Arial, sans-serif">WROTE</text></g><g class="relationship" transform="translate(259.47905857276504 120.53285603679237) rotate(407.2020128642429)"><path class="b-outline" fill="#A5ABB6" stroke="none" d="M 24.018736134675446,-6.953439040707552 L 24.277555179777966,-5.987513214418485 A 179.94484319249926 179.94484319249926 0 0 1 45.40027704874941,-10.31010727841948 L 45.25884242819733,-11.30005487708786 A 180.94484319249926 180.94484319249926 0 0 0 24.018736134675446,-6.953439040707552 Z M 92.14384518323982,-11.861755721483746 L 92.02616767919177,-10.868703857258595 A 179.94484319249926 179.94484319249926 0 0 1 113.24638483915851,-7.053394920892554 L 112.53957363377451,-4.137847301671833 L 120.16713115157086,-5.890093378200008 L 114.1887997796705,-10.940791746520182 L 113.4819885742865,-8.02524412729946 A 180.94484319249926 180.94484319249926 0 0 0 92.14384518323982,-11.861755721483746"/><text text-anchor="middle" pointer-events="none" font-size="8px" fill="#000000" x="68.6890623250887" y="-9.606036842015158" font-family="Helvetica Neue, Helvetica, Arial, sans-serif">DIRECTED</text></g><g class="relationship" transform="translate(431.4406429434023 18.480517353271605) rotate(261.57776295210925)"><path class="b-outline" fill="#A5ABB6" stroke="none" d="M 21.40063509461097,12.933012701892217 L 21.90063509461097,12.06698729810778 A 95.16253149297226 95.16253149297226 0 0 0 41.87672008205199,20.72445712719474 L 41.58663552538922,21.681458145995535 A 96.16253149297226 96.16253149297226 0 0 1 21.40063509461097,12.933012701892217 Z M 92.99099330679005,22.898415420904698 L 92.74652082774128,21.928759189558903 A 95.16253149297226 95.16253149297226 0 0 0 113.10991425141607,14.226294419132783 L 111.73454058094345,11.560146023680904 L 119.5601561192159,11.461447253938616 L 114.94374581204625,17.781158946401955 L 113.56837214157362,15.115010550950077 A 96.16253149297226 96.16253149297226 0 0 1 92.99099330679005,22.898415420904698"/><text text-anchor="middle" pointer-events="none" font-size="8px" fill="#000000" x="67.21780090272566" y="28.289552401466423" transform="rotate(180 67.21780090272566 25.289552401466423)" font-family="Helvetica Neue, Helvetica, Arial, sans-serif">PRODUCED</text></g><g class="relationship" transform="translate(431.4406429434023 18.480517353271605) rotate(261.57776295210925)"><path class="b-outline" fill="#A5ABB6" stroke="none" d="M 25 0.5 L 49.50231095732411 0.5 L 49.50231095732411 -0.5 L 25 -0.5 Z M 85.27574845732411 0.5 L 109.77805941464823 0.5 L 109.77805941464823 3.5 L 116.77805941464823 0 L 109.77805941464823 -3.5 L 109.77805941464823 -0.5 L 85.27574845732411 -0.5 Z"/><text text-anchor="middle" pointer-events="none" font-size="8px" fill="#000000" x="67.38902970732411" y="3" transform="rotate(180 67.38902970732411 0)" font-family="Helvetica Neue, Helvetica, Arial, sans-serif">WROTE</text></g><g class="relationship" transform="translate(431.4406429434023 18.480517353271605) rotate(261.57776295210925)"><path class="b-outline" fill="#A5ABB6" stroke="none" d="M 21.40063509461097,-12.933012701892217 L 21.90063509461097,-12.06698729810778 A 95.16253149297226 95.16253149297226 0 0 1 44.21342000753269,-21.400268566291373 L 43.94789028236528,-22.36437123979276 A 96.16253149297226 96.16253149297226 0 0 0 21.40063509461097,-12.933012701892217 Z M 90.60006714655096,-23.468824412160984 L 90.38045805372047,-22.4932364631035 A 95.16253149297226 95.16253149297226 0 0 1 113.10991425141607,-14.226294419132783 L 111.73454058094345,-11.560146023680904 L 119.5601561192159,-11.461447253938616 L 114.94374581204625,-17.781158946401955 L 113.56837214157362,-15.115010550950077 A 96.16253149297226 96.16253149297226 0 0 0 90.60006714655096,-23.468824412160984"/><text text-anchor="middle" pointer-events="none" font-size="8px" fill="#000000" x="67.21780090272567" y="-22.289552401466423" transform="rotate(180 67.21780090272567 -25.289552401466423)" font-family="Helvetica Neue, Helvetica, Arial, sans-serif">DIRECTED</text></g><g class="relationship" transform="translate(225.5024686469288 -164.85388320508397) rotate(292.7985970183534)"><path class="b-outline" fill="#A5ABB6" stroke="none" d="M 21.40063509461097,12.933012701892217 L 21.90063509461097,12.06698729810778 A 97.55448664439503 97.55448664439503 0 0 0 45.37184718819124,21.797410767416224 L 45.11244311464142,22.763179645888584 A 98.55448664439503 98.55448664439503 0 0 1 21.40063509461097,12.933012701892217 Z M 91.7817068482753,23.850777754912045 L 91.56757323396697,22.87397337571258 A 97.55448664439503 97.55448664439503 0 0 0 115.46658175663492,14.247483378770603 L 114.08923751916002,11.582352453000784 L 121.91477795634364,11.477868645624143 L 117.30304073993479,17.800991279797028 L 115.92569650245989,15.135860354027209 A 98.55448664439503 98.55448664439503 0 0 1 91.7817068482753,23.850777754912045"/><text text-anchor="middle" pointer-events="none" font-size="8px" fill="#000000" x="68.39339996796586" y="28.61019469517356" font-family="Helvetica Neue, Helvetica, Arial, sans-serif">DIRECTED</text></g><g class="relationship" transform="translate(225.5024686469288 -164.85388320508397) rotate(292.7985970183534)"><path class="b-outline" fill="#A5ABB6" stroke="none" d="M 25 0.5 L 42.671476168879394 0.5 L 42.671476168879394 -0.5 L 25 -0.5 Z M 94.4527261688794 0.5 L 112.12420233775879 0.5 L 112.12420233775879 3.5 L 119.12420233775879 0 L 112.12420233775879 -3.5 L 112.12420233775879 -0.5 L 94.4527261688794 -0.5 Z"/><text text-anchor="middle" pointer-events="none" font-size="8px" fill="#000000" x="68.5621011688794" y="3" font-family="Helvetica Neue, Helvetica, Arial, sans-serif">PRODUCED</text></g><g class="relationship" transform="translate(225.5024686469288 -164.85388320508397) rotate(292.7985970183534)"><path class="b-outline" fill="#A5ABB6" stroke="none" d="M 21.40063509461097,-12.933012701892217 L 21.90063509461097,-12.06698729810778 A 97.55448664439503 97.55448664439503 0 0 1 50.75058085216276,-23.07986638674211 L 50.54631246584769,-24.058781309680896 A 98.55448664439503 98.55448664439503 0 0 0 21.40063509461097,-12.933012701892217 Z M 86.29338289567873,-24.891844510002898 L 86.13493750155665,-23.90447676843874 A 97.55448664439503 97.55448664439503 0 0 1 115.46658175663492,-14.247483378770603 L 114.08923751916002,-11.582352453000784 L 121.91477795634364,-11.477868645624143 L 117.30304073993479,-17.800991279797028 L 115.92569650245989,-15.135860354027209 A 98.55448664439503 98.55448664439503 0 0 0 86.29338289567873,-24.891844510002898"/><text text-anchor="middle" pointer-events="none" font-size="8px" fill="#000000" x="68.39339996796583" y="-22.61019469517356" font-family="Helvetica Neue, Helvetica, Arial, sans-serif">WROTE</text></g><g class="relationship" transform="translate(63.85784004468324 -259.5236340063224) rotate(269.79901965185985)"><path class="b-outline" fill="#A5ABB6" stroke="none" d="M 24.018736134675446,-6.953439040707552 L 24.277555179777966,-5.987513214418485 A 178.69917805071486 178.69917805071486 0 0 1 45.08538843922419,-10.256004553315563 L 44.943009959133896,-11.24581684279633 A 179.69917805071486 179.69917805071486 0 0 0 24.018736134675446,-6.953439040707552 Z M 91.8270424999263,-11.809865784314667 L 91.70851810305652,-10.816914643851732 A 178.69917805071486 178.69917805071486 0 0 1 112.61302008538794,-7.050252974169037 L 111.90650232619645,-4.134634230926532 L 119.53388344615237,-5.887647993262596 L 113.55504376430996,-10.937744631825712 L 112.84852600511846,-8.022125888583206 A 179.69917805071486 179.69917805071486 0 0 0 91.8270424999263,-11.809865784314667"/><text text-anchor="middle" pointer-events="none" font-size="8px" fill="#000000" x="68.37256562606568" y="-9.563572958988658" transform="rotate(180 68.37256562606568 -12.563572958988658)" font-family="Helvetica Neue, Helvetica, Arial, sans-serif">DIRECTED</text></g><g class="relationship" transform="translate(63.85784004468324 -259.5236340063224) rotate(269.79901965185985)"><path class="b-outline" fill="#A5ABB6" stroke="none" d="M 24.018736134675446,6.953439040707552 L 24.277555179777966,5.987513214418485 A 178.69917805071486 178.69917805071486 0 0 0 50.58336089379042,10.96000588181434 L 50.471749049084465,11.953757760364198 A 179.69917805071486 179.69917805071486 0 0 1 24.018736134675446,6.953439040707552 Z M 86.28287199862336,12.384591562398896 L 86.19520011071575,11.388442155898701 A 178.69917805071486 178.69917805071486 0 0 0 112.61302008538794,7.050252974169037 L 111.90650232619645,4.134634230926532 L 119.53388344615237,5.887647993262596 L 113.55504376430996,10.937744631825712 L 112.84852600511846,8.022125888583206 A 179.69917805071486 179.69917805071486 0 0 1 86.28287199862336,12.384591562398896"/><text text-anchor="middle" pointer-events="none" font-size="8px" fill="#000000" x="68.37256562606578" y="15.563572958988658" transform="rotate(180 68.37256562606578 12.563572958988658)" font-family="Helvetica Neue, Helvetica, Arial, sans-serif">WROTE</text></g><g class="relationship" transform="translate(-76.72046911088813 -433.0966996881522) rotate(371.9881186460457)"><path class="b-outline" fill="#A5ABB6" stroke="none" d="M 24.018736134675446,-6.953439040707552 L 24.277555179777966,-5.987513214418485 A 177.4508575573621 177.4508575573621 0 0 1 50.267163656886424,-10.910345384705664 L 50.1548054902201,-11.904013157345673 A 178.4508575573621 178.4508575573621 0 0 0 24.018736134675446,-6.953439040707552 Z M 85.9657676976622,-12.336666221643242 L 85.87744897939996,-11.34057395483029 A 177.4508575573621 177.4508575573621 0 0 1 111.97840527499824,-7.04707819665488 L 111.27218402876791,-4.131387617842909 L 118.89938683326456,-5.885177051919435 L 112.92003360330536,-10.93466563507084 L 112.21381235707503,-8.018975056258869 A 178.4508575573621 178.4508575573621 0 0 0 85.9657676976622,-12.336666221643242"/><text text-anchor="middle" pointer-events="none" font-size="8px" fill="#000000" x="68.05544575754627" y="-9.521018717323415" font-family="Helvetica Neue, Helvetica, Arial, sans-serif">WROTE</text></g><g class="relationship" transform="translate(-76.72046911088813 -433.0966996881522) rotate(371.9881186460457)"><path class="b-outline" fill="#A5ABB6" stroke="none" d="M 24.018736134675446,6.953439040707552 L 24.277555179777966,5.987513214418485 A 177.4508575573621 177.4508575573621 0 0 0 44.76990957138827,10.20163122298655 L 44.6265723823539,11.191305134050054 A 178.4508575573621 178.4508575573621 0 0 1 24.018736134675446,6.953439040707552 Z M 91.50960595525822,11.757726332714924 L 91.39022076674485,10.7648783197927 A 177.4508575573621 177.4508575573621 0 0 0 111.97840527499824,7.04707819665488 L 111.27218402876791,4.131387617842909 L 118.89938683326456,5.885177051919435 L 112.92003360330536,10.93466563507084 L 112.21381235707503,8.018975056258869 A 178.4508575573621 178.4508575573621 0 0 1 91.50960595525822,11.757726332714924"/><text text-anchor="middle" pointer-events="none" font-size="8px" fill="#000000" x="68.05544575754624" y="15.521018717323415" font-family="Helvetica Neue, Helvetica, Arial, sans-serif">DIRECTED</text></g><g class="relationship" transform="translate(-129.1899089365767 -203.65001183026976) rotate(216.8411992438372)"><path class="b-outline" fill="#A5ABB6" stroke="none" d="M 21.40063509461097,12.933012701892217 L 21.90063509461097,12.06698729810778 A 97.84189963807178 97.84189963807178 0 0 0 43.16916031276381,21.18639070940226 L 42.88653676699076,22.14562161558422 A 98.84189963807178 98.84189963807178 0 0 1 21.40063509461097,12.933012701892217 Z M 94.31800903218998,23.341953661300536 L 94.08029178672444,22.370619264087978 A 97.84189963807178 97.84189963807178 0 0 0 115.74983234142577,14.249985318311943 L 114.37225542619905,11.58497465367391 L 122.1977867114523,11.479807626889281 L 117.58660156172806,17.803332871162652 L 116.20902464650133,15.13832220652462 A 98.84189963807178 98.84189963807178 0 0 1 94.31800903218998,23.341953661300536"/><text text-anchor="middle" pointer-events="none" font-size="8px" fill="#000000" x="68.53470207797393" y="28.64872264402564" transform="rotate(180 68.53470207797393 25.64872264402564)" font-family="Helvetica Neue, Helvetica, Arial, sans-serif">PRODUCED</text></g><g class="relationship" transform="translate(-129.1899089365767 -203.65001183026976) rotate(216.8411992438372)"><path class="b-outline" fill="#A5ABB6" stroke="none" d="M 25 0.5 L 45.257791958384615 0.5 L 45.257791958384615 -0.5 L 25 -0.5 Z M 92.14841695838462 0.5 L 112.40620891676923 0.5 L 112.40620891676923 3.5 L 119.40620891676923 0 L 112.40620891676923 -3.5 L 112.40620891676923 -0.5 L 92.14841695838462 -0.5 Z"/><text text-anchor="middle" pointer-events="none" font-size="8px" fill="#000000" x="68.70310445838462" y="3" transform="rotate(180 68.70310445838462 0)" font-family="Helvetica Neue, Helvetica, Arial, sans-serif">DIRECTED</text></g><g class="relationship" transform="translate(-129.1899089365767 -203.65001183026976) rotate(216.8411992438372)"><path class="b-outline" fill="#A5ABB6" stroke="none" d="M 21.40063509461097,-12.933012701892217 L 21.90063509461097,-12.06698729810778 A 97.84189963807178 97.84189963807178 0 0 1 50.89082469221772,-23.123823910463287 L 50.687120958999586,-24.1028564886102 A 98.84189963807178 98.84189963807178 0 0 0 21.40063509461097,-12.933012701892217 Z M 86.43485737853017,-24.934373860307943 L 86.27689529441346,-23.946928682092206 A 97.84189963807178 97.84189963807178 0 0 1 115.74983234142577,-14.249985318311943 L 114.37225542619905,-11.58497465367391 L 122.1977867114523,-11.479807626889281 L 117.58660156172806,-17.803332871162652 L 116.20902464650133,-15.13832220652462 A 98.84189963807178 98.84189963807178 0 0 0 86.43485737853017,-24.934373860307943"/><text text-anchor="middle" pointer-events="none" font-size="8px" fill="#000000" x="68.53470207797396" y="-22.64872264402564" transform="rotate(180 68.53470207797396 -25.64872264402564)" font-family="Helvetica Neue, Helvetica, Arial, sans-serif">WROTE</text></g><g class="relationship" transform="translate(-358.1621705399672 -120.43832915482257) rotate(381.16722808986566)"><path class="b-outline" fill="#A5ABB6" stroke="none" d="M 21.40063509461097,12.933012701892217 L 21.90063509461097,12.06698729810778 A 97.62073759023515 97.62073759023515 0 0 0 43.06237892041218,21.148460319084123 L 42.77915400681471,22.107513836004685 A 98.62073759023515 98.62073759023515 0 0 1 21.40063509461097,12.933012701892217 Z M 94.20847867716482,23.305523682526896 L 93.97021768498823,22.334322519220834 A 97.62073759023515 97.62073759023515 0 0 0 115.53187178081276,14.24806092120344 L 114.15447383246226,11.582957753992115 L 121.98001216236428,11.478316236254155 L 117.36840237861344,17.80153181081854 L 115.99100443026293,15.136428643607214 A 98.62073759023515 98.62073759023515 0 0 1 94.20847867716482,23.305523682526896"/><text text-anchor="middle" pointer-events="none" font-size="8px" fill="#000000" x="68.42597038251712" y="28.619075686422107" font-family="Helvetica Neue, Helvetica, Arial, sans-serif">PRODUCED</text></g><g class="relationship" transform="translate(-358.1621705399672 -120.43832915482257) rotate(381.16722808986566)"><path class="b-outline" fill="#A5ABB6" stroke="none" d="M 25 0.5 L 45.14929011122929 0.5 L 45.14929011122929 -0.5 L 25 -0.5 Z M 92.03991511122929 0.5 L 112.18920522245858 0.5 L 112.18920522245858 3.5 L 119.18920522245858 0 L 112.18920522245858 -3.5 L 112.18920522245858 -0.5 L 92.03991511122929 -0.5 Z"/><text text-anchor="middle" pointer-events="none" font-size="8px" fill="#000000" x="68.59460261122929" y="3" font-family="Helvetica Neue, Helvetica, Arial, sans-serif">DIRECTED</text></g><g class="relationship" transform="translate(-358.1621705399672 -120.43832915482257) rotate(381.16722808986566)"><path class="b-outline" fill="#A5ABB6" stroke="none" d="M 21.40063509461097,-12.933012701892217 L 21.90063509461097,-12.06698729810778 A 97.62073759023515 97.62073759023515 0 0 1 50.78290661365648,-23.090001565490084 L 50.578768663380785,-24.068943697210457 A 98.62073759023515 98.62073759023515 0 0 0 21.40063509461097,-12.933012701892217 Z M 86.32599325653821,-24.901650082583885 L 86.16765952523224,-23.91426442868226 A 97.62073759023515 97.62073759023515 0 0 1 115.53187178081276,-14.24806092120344 L 114.15447383246226,-11.582957753992115 L 121.98001216236428,-11.478316236254155 L 117.36840237861344,-17.80153181081854 L 115.99100443026293,-15.136428643607214 A 98.62073759023515 98.62073759023515 0 0 0 86.32599325653821,-24.901650082583885"/><text text-anchor="middle" pointer-events="none" font-size="8px" fill="#000000" x="68.42597038251714" y="-22.619075686422107" font-family="Helvetica Neue, Helvetica, Arial, sans-serif">WROTE</text></g><g class="relationship" transform="translate(-427.49148837469767 87.33070659944744) rotate(407.5005523786999)"><path class="b-outline" fill="#A5ABB6" stroke="none" d="M 24.018736134675446,-6.953439040707552 L 24.277555179777966,-5.987513214418485 A 176.30165968465067 176.30165968465067 0 0 1 49.976134445977124,-10.864544776829433 L 49.86308021847283,-11.858133596031536 A 177.30165968465067 177.30165968465067 0 0 0 24.018736134675446,-6.953439040707552 Z M 85.67388717032733,-12.292474751271868 L 85.58496468190269,-11.296436202292767 A 176.30165968465067 176.30165968465067 0 0 1 111.39427158964087,-7.044132108739267 L 110.68832549801871,-4.128374897357732 L 118.31536276480146,-5.882884096851191 L 112.33553304513705,-10.931808390581313 L 111.6295869535149,-8.016051179199778 A 177.30165968465067 177.30165968465067 0 0 0 85.67388717032733,-12.292474751271868"/><text text-anchor="middle" pointer-events="none" font-size="8px" fill="#000000" x="67.76355286949946" y="-9.48184363347238" font-family="Helvetica Neue, Helvetica, Arial, sans-serif">WROTE</text></g><g class="relationship" transform="translate(-427.49148837469767 87.33070659944744) rotate(407.5005523786999)"><path class="b-outline" fill="#A5ABB6" stroke="none" d="M 24.018736134675446,6.953439040707552 L 24.277555179777966,5.987513214418485 A 176.30165968465067 176.30165968465067 0 0 0 44.47955413210636,10.15143525139726 L 44.33532277147864,11.140979244664607 A 177.30165968465067 177.30165968465067 0 0 1 24.018736134675446,6.953439040707552 Z M 91.21741235754621,11.709601475888519 L 91.09722380428563,10.716850393458941 A 176.30165968465067 176.30165968465067 0 0 0 111.39427158964087,7.044132108739267 L 110.68832549801871,4.128374897357732 L 118.31536276480146,5.882884096851191 L 112.33553304513705,10.931808390581313 L 111.6295869535149,8.016051179199778 A 177.30165968465067 177.30165968465067 0 0 1 91.21741235754621,11.709601475888519"/><text text-anchor="middle" pointer-events="none" font-size="8px" fill="#000000" x="67.76355286949955" y="15.48184363347238" font-family="Helvetica Neue, Helvetica, Arial, sans-serif">DIRECTED</text></g><g class="relationship" transform="translate(-195.71144843892353 145.8869189364213) rotate(521.0162572418915)"><path class="b-outline" fill="#A5ABB6" stroke="none" d="M 24.018736134675446,-6.953439040707552 L 24.277555179777966,-5.987513214418485 A 177.50170286403258 177.50170286403258 0 0 1 44.7827577303794,-10.203848978405176 L 44.639459844903776,-11.193528581114151 A 178.50170286403258 178.50170286403258 0 0 0 24.018736134675446,-6.953439040707552 Z M 91.5225346392778,-11.759852777995945 L 91.4031847514149,-10.767000520977234 A 177.50170286403258 177.50170286403258 0 0 1 112.00425177941449,-7.047208023574663 L 111.29801840780051,-4.131520381727761 L 118.92522850565959,-5.88527809678319 L 112.9458962748998,-10.934791546037198 L 112.23966290328582,-8.019103904190297 A 178.50170286403258 178.50170286403258 0 0 0 91.5225346392778,-11.759852777995945"/><text text-anchor="middle" pointer-events="none" font-size="8px" fill="#000000" x="68.06836134237717" y="-9.522751989718103" transform="rotate(180 68.06836134237717 -12.522751989718103)" font-family="Helvetica Neue, Helvetica, Arial, sans-serif">DIRECTED</text></g><g class="relationship" transform="translate(-195.71144843892353 145.8869189364213) rotate(521.0162572418915)"><path class="b-outline" fill="#A5ABB6" stroke="none" d="M 24.018736134675446,6.953439040707552 L 24.277555179777966,5.987513214418485 A 177.50170286403258 177.50170286403258 0 0 0 50.2800413484026,10.91236993593148 L 50.16771377774268,11.906041167712743 A 178.50170286403258 178.50170286403258 0 0 1 24.018736134675446,6.953439040707552 Z M 85.9786826913195,12.338619839194706 L 85.8903905012769,11.34252522060794 A 177.50170286403258 177.50170286403258 0 0 0 112.00425177941449,7.047208023574663 L 111.29801840780051,4.131520381727761 L 118.92522850565959,5.88527809678319 L 112.9458962748998,10.934791546037198 L 112.23966290328582,8.019103904190297 A 178.50170286403258 178.50170286403258 0 0 1 85.9786826913195,12.338619839194706"/><text text-anchor="middle" pointer-events="none" font-size="8px" fill="#000000" x="68.06836134237722" y="15.522751989718103" transform="rotate(180 68.06836134237722 12.522751989718103)" font-family="Helvetica Neue, Helvetica, Arial, sans-serif">WROTE</text></g><g class="relationship" transform="translate(-221.17004836085488 372.88575976347255) rotate(385.88568159168926)"><path class="b-outline" fill="#A5ABB6" stroke="none" d="M 21.40063509461097,12.933012701892217 L 21.90063509461097,12.06698729810778 A 96.35570156312012 96.35570156312012 0 0 0 42.45193590103206,20.93082076249398 L 42.16522167938279,21.88883691846634 A 97.35570156312012 97.35570156312012 0 0 1 21.40063509461097,12.933012701892217 Z M 93.58195454931318,23.096528465874528 L 93.3405360366244,22.126107370817778 A 96.35570156312012 96.35570156312012 0 0 0 114.28533616299367,14.236946693862617 L 112.90897183053544,11.571309579712077 L 120.7345501514213,11.46970277048518 L 116.12048860627131,17.791129512730002 L 114.74412427381307,15.125492398579464 A 97.35570156312012 97.35570156312012 0 0 1 93.58195454931318,23.096528465874528"/><text text-anchor="middle" pointer-events="none" font-size="8px" fill="#000000" x="67.80413758076317" y="28.449496905756945" font-family="Helvetica Neue, Helvetica, Arial, sans-serif">PRODUCED</text></g><g class="relationship" transform="translate(-221.17004836085488 372.88575976347255) rotate(385.88568159168926)"><path class="b-outline" fill="#A5ABB6" stroke="none" d="M 25 0.5 L 44.5287838846712 0.5 L 44.5287838846712 -0.5 L 25 -0.5 Z M 91.4194088846712 0.5 L 110.9481927693424 0.5 L 110.9481927693424 3.5 L 117.9481927693424 0 L 110.9481927693424 -3.5 L 110.9481927693424 -0.5 L 91.4194088846712 -0.5 Z"/><text text-anchor="middle" pointer-events="none" font-size="8px" fill="#000000" x="67.9740963846712" y="3" font-family="Helvetica Neue, Helvetica, Arial, sans-serif">DIRECTED</text></g><g class="relationship" transform="translate(-221.17004836085488 372.88575976347255) rotate(385.88568159168926)"><path class="b-outline" fill="#A5ABB6" stroke="none" d="M 21.40063509461097,-12.933012701892217 L 21.90063509461097,-12.06698729810778 A 96.35570156312012 96.35570156312012 0 0 1 50.16582059825426,-22.896198628958686 L 49.959162715483586,-23.87461189516513 A 97.35570156312012 97.35570156312012 0 0 0 21.40063509461097,-12.933012701892217 Z M 85.70337509595444,-24.714182609816717 L 85.54288229513318,-23.72714559891766 A 96.35570156312012 96.35570156312012 0 0 1 114.28533616299367,-14.236946693862617 L 112.90897183053544,-11.571309579712077 L 120.7345501514213,-11.46970277048518 L 116.12048860627131,-17.791129512730002 L 114.74412427381307,-15.125492398579464 A 97.35570156312012 97.35570156312012 0 0 0 85.70337509595444,-24.714182609816717"/><text text-anchor="middle" pointer-events="none" font-size="8px" fill="#000000" x="67.80413758076314" y="-22.44949690575693" font-family="Helvetica Neue, Helvetica, Arial, sans-serif">WROTE</text></g></g><g class="layer nodes"><g class="node" aria-label="graph-node45" transform="translate(20.485768138708337,178.75560689094434)"><circle class="b-outline" cx="0" cy="0" r="25" fill="#C990C0" stroke="#b261a5" stroke-width="2px"/><text class="caption" text-anchor="middle" pointer-events="none" x="0" y="0" font-size="10px" fill="#FFFFFF" font-family="Helvetica Neue, Helvetica, Arial, sans-serif"> Cameron</text><text class="caption" text-anchor="middle" pointer-events="none" x="0" y="10" font-size="10px" fill="#FFFFFF" font-family="Helvetica Neue, Helvetica, Arial, sans-serif"> Crowe</text></g><g class="node" aria-label="graph-node37" transform="translate(55.36696235899038,318.3903237503894)"><circle class="b-outline" cx="0" cy="0" r="25" fill="#F79767" stroke="#f36924" stroke-width="2px"/><text class="caption" text-anchor="middle" pointer-events="none" x="0" y="0" font-size="10px" fill="#FFFFFF" font-family="Helvetica Neue, Helvetica, Arial, sans-serif"> Jerry</text><text class="caption" text-anchor="middle" pointer-events="none" x="0" y="10" font-size="10px" fill="#FFFFFF" font-family="Helvetica Neue, Helvetica, Arial, sans-serif"> Maguire</text></g><g class="node" aria-label="graph-node5" transform="translate(236.99571028110051,302.61277433968655)"><circle class="b-outline" cx="0" cy="0" r="25" fill="#C990C0" stroke="#b261a5" stroke-width="2px"/><text class="caption" text-anchor="middle" pointer-events="none" x="0" y="0" font-size="10px" fill="#FFFFFF" font-family="Helvetica Neue, Helvetica, Arial, sans-serif"> Andy</text><text class="caption" text-anchor="middle" pointer-events="none" x="0" y="10" font-size="10px" fill="#FFFFFF" font-family="Helvetica Neue, Helvetica, Arial, sans-serif"> Wach…</text></g><g class="node" aria-label="graph-node119" transform="translate(357.62970934484906,226.5333867642551)"><circle class="b-outline" cx="0" cy="0" r="25" fill="#F79767" stroke="#f36924" stroke-width="2px"/><text class="caption" text-anchor="middle" pointer-events="none" x="0" y="0" font-size="10px" fill="#FFFFFF" font-family="Helvetica Neue, Helvetica, Arial, sans-serif"> Speed</text><text class="caption" text-anchor="middle" pointer-events="none" x="0" y="10" font-size="10px" fill="#FFFFFF" font-family="Helvetica Neue, Helvetica, Arial, sans-serif"> Racer</text></g><g class="node" aria-label="graph-node6" transform="translate(259.47905857276504,120.53285603679237)"><circle class="b-outline" cx="0" cy="0" r="25" fill="#C990C0" stroke="#b261a5" stroke-width="2px"/><text class="caption" text-anchor="middle" pointer-events="none" x="0" y="0" font-size="10px" fill="#FFFFFF" font-family="Helvetica Neue, Helvetica, Arial, sans-serif"> Lana</text><text class="caption" text-anchor="middle" pointer-events="none" x="0" y="10" font-size="10px" fill="#FFFFFF" font-family="Helvetica Neue, Helvetica, Arial, sans-serif"> Wach…</text></g><g class="node" aria-label="graph-node154" transform="translate(431.4406429434023,18.480517353271605)"><circle class="b-outline" cx="0" cy="0" r="25" fill="#C990C0" stroke="#b261a5" stroke-width="2px"/><text class="caption" text-anchor="middle" pointer-events="none" x="0" y="0" font-size="10px" fill="#FFFFFF" font-family="Helvetica Neue, Helvetica, Arial, sans-serif"> Nancy</text><text class="caption" text-anchor="middle" pointer-events="none" x="0" y="10" font-size="10px" fill="#FFFFFF" font-family="Helvetica Neue, Helvetica, Arial, sans-serif"> Meyers</text></g><g class="node" aria-label="graph-node152" transform="translate(410.6748410559105,-121.76854540064829)"><circle class="b-outline" cx="0" cy="0" r="25" fill="#F79767" stroke="#f36924" stroke-width="2px"/><text class="caption" text-anchor="middle" pointer-events="none" x="0" y="5" font-size="10px" fill="#FFFFFF" font-family="Helvetica Neue, Helvetica, Arial, sans-serif"> Somethi…</text></g><g class="node" aria-label="graph-node214" transform="translate(225.5024686469288,-164.85388320508397)"><circle class="b-outline" cx="0" cy="0" r="25" fill="#C990C0" stroke="#b261a5" stroke-width="2px"/><text class="caption" text-anchor="middle" pointer-events="none" x="0" y="0" font-size="10px" fill="#FFFFFF" font-family="Helvetica Neue, Helvetica, Arial, sans-serif"> Cameron</text><text class="caption" text-anchor="middle" pointer-events="none" x="0" y="10" font-size="10px" fill="#FFFFFF" font-family="Helvetica Neue, Helvetica, Arial, sans-serif"> Crowe</text></g><g class="node" aria-label="graph-node206" transform="translate(281.34959005649523,-297.71804214104526)"><circle class="b-outline" cx="0" cy="0" r="25" fill="#F79767" stroke="#f36924" stroke-width="2px"/><text class="caption" text-anchor="middle" pointer-events="none" x="0" y="0" font-size="10px" fill="#FFFFFF" font-family="Helvetica Neue, Helvetica, Arial, sans-serif"> Jerry</text><text class="caption" text-anchor="middle" pointer-events="none" x="0" y="10" font-size="10px" fill="#FFFFFF" font-family="Helvetica Neue, Helvetica, Arial, sans-serif"> Maguire</text></g><g class="node" aria-label="graph-node174" transform="translate(63.85784004468324,-259.5236340063224)"><circle class="b-outline" cx="0" cy="0" r="25" fill="#C990C0" stroke="#b261a5" stroke-width="2px"/><text class="caption" text-anchor="middle" pointer-events="none" x="0" y="0" font-size="10px" fill="#FFFFFF" font-family="Helvetica Neue, Helvetica, Arial, sans-serif"> Lilly</text><text class="caption" text-anchor="middle" pointer-events="none" x="0" y="10" font-size="10px" fill="#FFFFFF" font-family="Helvetica Neue, Helvetica, Arial, sans-serif"> Wach…</text></g><g class="node" aria-label="graph-node290" transform="translate(63.35331621428291,-403.3534554354444)"><circle class="b-outline" cx="0" cy="0" r="25" fill="#F79767" stroke="#f36924" stroke-width="2px"/><text class="caption" text-anchor="middle" pointer-events="none" x="0" y="0" font-size="10px" fill="#FFFFFF" font-family="Helvetica Neue, Helvetica, Arial, sans-serif"> Speed</text><text class="caption" text-anchor="middle" pointer-events="none" x="0" y="10" font-size="10px" fill="#FFFFFF" font-family="Helvetica Neue, Helvetica, Arial, sans-serif"> Racer</text></g><g class="node" aria-label="graph-node175" transform="translate(-76.72046911088813,-433.0966996881522)"><circle class="b-outline" cx="0" cy="0" r="25" fill="#C990C0" stroke="#b261a5" stroke-width="2px"/><text class="caption" text-anchor="middle" pointer-events="none" x="0" y="0" font-size="10px" fill="#FFFFFF" font-family="Helvetica Neue, Helvetica, Arial, sans-serif"> Lana</text><text class="caption" text-anchor="middle" pointer-events="none" x="0" y="10" font-size="10px" fill="#FFFFFF" font-family="Helvetica Neue, Helvetica, Arial, sans-serif"> Wach…</text></g><g class="node" aria-label="graph-node325" transform="translate(-129.1899089365767,-203.65001183026976)"><circle class="b-outline" cx="0" cy="0" r="25" fill="#C990C0" stroke="#b261a5" stroke-width="2px"/><text class="caption" text-anchor="middle" pointer-events="none" x="0" y="0" font-size="10px" fill="#FFFFFF" font-family="Helvetica Neue, Helvetica, Arial, sans-serif"> Nancy</text><text class="caption" text-anchor="middle" pointer-events="none" x="0" y="10" font-size="10px" fill="#FFFFFF" font-family="Helvetica Neue, Helvetica, Arial, sans-serif"> Meyers</text></g><g class="node" aria-label="graph-node323" transform="translate(-244.75825982481174,-290.2358619830943)"><circle class="b-outline" cx="0" cy="0" r="25" fill="#F79767" stroke="#f36924" stroke-width="2px"/><text class="caption" text-anchor="middle" pointer-events="none" x="0" y="5" font-size="10px" fill="#FFFFFF" font-family="Helvetica Neue, Helvetica, Arial, sans-serif"> Somethi…</text></g><g class="node" aria-label="graph-node385" transform="translate(-358.1621705399672,-120.43832915482257)"><circle class="b-outline" cx="0" cy="0" r="25" fill="#C990C0" stroke="#b261a5" stroke-width="2px"/><text class="caption" text-anchor="middle" pointer-events="none" x="0" y="0" font-size="10px" fill="#FFFFFF" font-family="Helvetica Neue, Helvetica, Arial, sans-serif"> Cameron</text><text class="caption" text-anchor="middle" pointer-events="none" x="0" y="10" font-size="10px" fill="#FFFFFF" font-family="Helvetica Neue, Helvetica, Arial, sans-serif"> Crowe</text></g><g class="node" aria-label="graph-node377" transform="translate(-223.70134035592872,-68.37286988571161)"><circle class="b-outline" cx="0" cy="0" r="25" fill="#F79767" stroke="#f36924" stroke-width="2px"/><text class="caption" text-anchor="middle" pointer-events="none" x="0" y="0" font-size="10px" fill="#FFFFFF" font-family="Helvetica Neue, Helvetica, Arial, sans-serif"> Jerry</text><text class="caption" text-anchor="middle" pointer-events="none" x="0" y="10" font-size="10px" fill="#FFFFFF" font-family="Helvetica Neue, Helvetica, Arial, sans-serif"> Maguire</text></g><g class="node" aria-label="graph-node345" transform="translate(-427.49148837469767,87.33070659944744)"><circle class="b-outline" cx="0" cy="0" r="25" fill="#C990C0" stroke="#b261a5" stroke-width="2px"/><text class="caption" text-anchor="middle" pointer-events="none" x="0" y="0" font-size="10px" fill="#FFFFFF" font-family="Helvetica Neue, Helvetica, Arial, sans-serif"> Andy</text><text class="caption" text-anchor="middle" pointer-events="none" x="0" y="10" font-size="10px" fill="#FFFFFF" font-family="Helvetica Neue, Helvetica, Arial, sans-serif"> Wach…</text></g><g class="node" aria-label="graph-node459" transform="translate(-331.1443264102102,192.47721863021627)"><circle class="b-outline" cx="0" cy="0" r="25" fill="#F79767" stroke="#f36924" stroke-width="2px"/><text class="caption" text-anchor="middle" pointer-events="none" x="0" y="0" font-size="10px" fill="#FFFFFF" font-family="Helvetica Neue, Helvetica, Arial, sans-serif"> Speed</text><text class="caption" text-anchor="middle" pointer-events="none" x="0" y="10" font-size="10px" fill="#FFFFFF" font-family="Helvetica Neue, Helvetica, Arial, sans-serif"> Racer</text></g><g class="node" aria-label="graph-node346" transform="translate(-195.71144843892353,145.8869189364213)"><circle class="b-outline" cx="0" cy="0" r="25" fill="#C990C0" stroke="#b261a5" stroke-width="2px"/><text class="caption" text-anchor="middle" pointer-events="none" x="0" y="0" font-size="10px" fill="#FFFFFF" font-family="Helvetica Neue, Helvetica, Arial, sans-serif"> Lana</text><text class="caption" text-anchor="middle" pointer-events="none" x="0" y="10" font-size="10px" fill="#FFFFFF" font-family="Helvetica Neue, Helvetica, Arial, sans-serif"> Wach…</text></g><g class="node" aria-label="graph-node494" transform="translate(-221.17004836085488,372.88575976347255)"><circle class="b-outline" cx="0" cy="0" r="25" fill="#C990C0" stroke="#b261a5" stroke-width="2px"/><text class="caption" text-anchor="middle" pointer-events="none" x="0" y="0" font-size="10px" fill="#FFFFFF" font-family="Helvetica Neue, Helvetica, Arial, sans-serif"> Nancy</text><text class="caption" text-anchor="middle" pointer-events="none" x="0" y="10" font-size="10px" fill="#FFFFFF" font-family="Helvetica Neue, Helvetica, Arial, sans-serif"> Meyers</text></g><g class="node" aria-label="graph-node492" transform="translate(-92.56428961020882,435.29364894578424)"><circle class="b-outline" cx="0" cy="0" r="25" fill="#F79767" stroke="#f36924" stroke-width="2px"/><text class="caption" text-anchor="middle" pointer-events="none" x="0" y="5" font-size="10px" fill="#FFFFFF" font-family="Helvetica Neue, Helvetica, Arial, sans-serif"> Somethi…</text></g></g></svg>