<svg xmlns="http://www.w3.org/2000/svg" width="815.8922119140625" height="719.18798828125" viewBox="-397.9377746582031 -315.9046630859375 815.8922119140625 719.18798828125"><title>Neo4j Graph Visualization</title><desc>Created using Neo4j (http://www.neo4j.com/)</desc><g class="layer relationships"><g class="relationship" transform="translate(30.316671651962093 235.93027234973928) rotate(502.2079439150308)"><path class="b-outline" fill="#A5ABB6" stroke="none" d="M 25 0.5 L 46.20147252094365 0.5 L 46.20147252094365 -0.5 L 25 -0.5 Z M 91.76397252094365 0.5 L 112.9654450418873 0.5 L 112.9654450418873 3.5 L 119.9654450418873 0 L 112.9654450418873 -3.5 L 112.9654450418873 -0.5 L 91.76397252094365 -0.5 Z"/><text text-anchor="middle" pointer-events="none" font-size="8px" fill="#000000" x="68.98272252094365" y="3" transform="rotate(180 68.98272252094365 0)" font-family="Helvetica Neue, Helvetica, Arial, sans-serif">ACTED_IN</text></g><g class="relationship" transform="translate(30.316671651962093 235.93027234973928) rotate(376.89921134978107)"><path class="b-outline" fill="#A5ABB6" stroke="none" d="M 25 0.5 L 47.082083340697835 0.5 L 47.082083340697835 -0.5 L 25 -0.5 Z M 92.64458334069784 0.5 L 114.72666668139567 0.5 L 114.72666668139567 3.5 L 121.72666668139567 0 L 114.72666668139567 -3.5 L 114.72666668139567 -0.5 L 92.64458334069784 -0.5 Z"/><text text-anchor="middle" pointer-events="none" font-size="8px" fill="#000000" x="69.86333334069784" y="3" font-family="Helvetica Neue, Helvetica, Arial, sans-serif">ACTED_IN</text></g><g class="relationship" transform="translate(30.316671651962093 235.93027234973928) rotate(433.2768312350458)"><path class="b-outline" fill="#A5ABB6" stroke="none" d="M 25 0.5 L 45.95022580473987 0.5 L 45.95022580473987 -0.5 L 25 -0.5 Z M 91.51272580473987 0.5 L 112.46295160947975 0.5 L 112.46295160947975 3.5 L 119.46295160947975 0 L 112.46295160947975 -3.5 L 112.46295160947975 -0.5 L 91.51272580473987 -0.5 Z"/><text text-anchor="middle" pointer-events="none" font-size="8px" fill="#000000" x="68.73147580473987" y="3" font-family="Helvetica Neue, Helvetica, Arial, sans-serif">ACTED_IN</text></g><g class="relationship" transform="translate(30.316671651962093 235.93027234973928) rotate(267.34800411726246)"><path class="b-outline" fill="#A5ABB6" stroke="none" d="M 25 0.5 L 45.54604180987204 0.5 L 45.54604180987204 -0.5 L 25 -0.5 Z M 91.10854180987204 0.5 L 111.65458361974407 0.5 L 111.65458361974407 3.5 L 118.65458361974407 0 L 111.65458361974407 -3.5 L 111.65458361974407 -0.5 L 91.10854180987204 -0.5 Z"/><text text-anchor="middle" pointer-events="none" font-size="8px" fill="#000000" x="68.32729180987204" y="3" transform="rotate(180 68.32729180987204 0)" font-family="Helvetica Neue, Helvetica, Arial, sans-serif">ACTED_IN</text></g><g class="relationship" transform="translate(30.316671651962093 235.93027234973928) rotate(331.30388750763024)"><path class="b-outline" fill="#A5ABB6" stroke="none" d="M 25 0.5 L 47.10896000643095 0.5 L 47.10896000643095 -0.5 L 25 -0.5 Z M 92.67146000643095 0.5 L 114.7804200128619 0.5 L 114.7804200128619 3.5 L 121.7804200128619 0 L 114.7804200128619 -3.5 L 114.7804200128619 -0.5 L 92.67146000643095 -0.5 Z"/><text text-anchor="middle" pointer-events="none" font-size="8px" fill="#000000" x="69.89021000643095" y="3" font-family="Helvetica Neue, Helvetica, Arial, sans-serif">ACTED_IN</text></g><g class="relationship" transform="translate(246.69589775793145 -147.0233512820451) rotate(367.0963161930556)"><path class="b-outline" fill="#A5ABB6" stroke="none" d="M 25 0.5 L 45.397110691918684 0.5 L 45.397110691918684 -0.5 L 25 -0.5 Z M 90.95961069191868 0.5 L 111.35672138383737 0.5 L 111.35672138383737 3.5 L 118.35672138383737 0 L 111.35672138383737 -3.5 L 111.35672138383737 -0.5 L 90.95961069191868 -0.5 Z"/><text text-anchor="middle" pointer-events="none" font-size="8px" fill="#000000" x="68.17836069191868" y="3" font-family="Helvetica Neue, Helvetica, Arial, sans-serif">ACTED_IN</text></g><g class="relationship" transform="translate(246.69589775793145 -147.0233512820451) rotate(284.91421616372827)"><path class="b-outline" fill="#A5ABB6" stroke="none" d="M 25 0.5 L 46.097684152098424 0.5 L 46.097684152098424 -0.5 L 25 -0.5 Z M 91.66018415209842 0.5 L 112.75786830419685 0.5 L 112.75786830419685 3.5 L 119.75786830419685 0 L 112.75786830419685 -3.5 L 112.75786830419685 -0.5 L 91.66018415209842 -0.5 Z"/><text text-anchor="middle" pointer-events="none" font-size="8px" fill="#000000" x="68.87893415209842" y="3" font-family="Helvetica Neue, Helvetica, Arial, sans-serif">ACTED_IN</text></g><g class="relationship" transform="translate(246.69589775793145 -147.0233512820451) rotate(198.10903938931727)"><path class="b-outline" fill="#A5ABB6" stroke="none" d="M 25 0.5 L 47.565258761118784 0.5 L 47.565258761118784 -0.5 L 25 -0.5 Z M 93.12775876111878 0.5 L 115.69301752223757 0.5 L 115.69301752223757 3.5 L 122.69301752223757 0 L 115.69301752223757 -3.5 L 115.69301752223757 -0.5 L 93.12775876111878 -0.5 Z"/><text text-anchor="middle" pointer-events="none" font-size="8px" fill="#000000" x="70.34650876111878" y="3" transform="rotate(180 70.34650876111878 0)" font-family="Helvetica Neue, Helvetica, Arial, sans-serif">ACTED_IN</text></g><g class="relationship" transform="translate(246.69589775793145 -147.0233512820451) rotate(237.93302368329552)"><path class="b-outline" fill="#A5ABB6" stroke="none" d="M 25 0.5 L 47.87286527891705 0.5 L 47.87286527891705 -0.5 L 25 -0.5 Z M 93.43536527891705 0.5 L 116.3082305578341 0.5 L 116.3082305578341 3.5 L 123.3082305578341 0 L 116.3082305578341 -3.5 L 116.3082305578341 -0.5 L 93.43536527891705 -0.5 Z"/><text text-anchor="middle" pointer-events="none" font-size="8px" fill="#000000" x="70.65411527891705" y="3" transform="rotate(180 70.65411527891705 0)" font-family="Helvetica Neue, Helvetica, Arial, sans-serif">ACTED_IN</text></g><g class="relationship" transform="translate(246.69589775793145 -147.0233512820451) rotate(504.9600388184507)"><path class="b-outline" fill="#A5ABB6" stroke="none" d="M 25 0.5 L 44.96394660532373 0.5 L 44.96394660532373 -0.5 L 25 -0.5 Z M 90.52644660532373 0.5 L 110.49039321064745 0.5 L 110.49039321064745 3.5 L 117.49039321064745 0 L 110.49039321064745 -3.5 L 110.49039321064745 -0.5 L 90.52644660532373 -0.5 Z"/><text text-anchor="middle" pointer-events="none" font-size="8px" fill="#000000" x="67.74519660532373" y="3" transform="rotate(180 67.74519660532373 0)" font-family="Helvetica Neue, Helvetica, Arial, sans-serif">ACTED_IN</text></g><g class="relationship" transform="translate(-243.81578618102552 6.686847429322236) rotate(210.98540786561)"><path class="b-outline" fill="#A5ABB6" stroke="none" d="M 25 0.5 L 46.46711828656079 0.5 L 46.46711828656079 -0.5 L 25 -0.5 Z M 92.02961828656079 0.5 L 113.49673657312158 0.5 L 113.49673657312158 3.5 L 120.49673657312158 0 L 113.49673657312158 -3.5 L 113.49673657312158 -0.5 L 92.02961828656079 -0.5 Z"/><text text-anchor="middle" pointer-events="none" font-size="8px" fill="#000000" x="69.24836828656079" y="3" transform="rotate(180 69.24836828656079 0)" font-family="Helvetica Neue, Helvetica, Arial, sans-serif">ACTED_IN</text></g><g class="relationship" transform="translate(-243.81578618102552 6.686847429322236) rotate(263.26348107063916)"><path class="b-outline" fill="#A5ABB6" stroke="none" d="M 25 0.5 L 47.3886962576927 0.5 L 47.3886962576927 -0.5 L 25 -0.5 Z M 92.9511962576927 0.5 L 115.3398925153854 0.5 L 115.3398925153854 3.5 L 122.3398925153854 0 L 115.3398925153854 -3.5 L 115.3398925153854 -0.5 L 92.9511962576927 -0.5 Z"/><text text-anchor="middle" pointer-events="none" font-size="8px" fill="#000000" x="70.1699462576927" y="3" transform="rotate(180 70.1699462576927 0)" font-family="Helvetica Neue, Helvetica, Arial, sans-serif">ACTED_IN</text></g><g class="relationship" transform="translate(-243.81578618102552 6.686847429322236) rotate(509.0289768499898)"><path class="b-outline" fill="#A5ABB6" stroke="none" d="M 25 0.5 L 46.68232732367822 0.5 L 46.68232732367822 -0.5 L 25 -0.5 Z M 92.24482732367822 0.5 L 113.92715464735645 0.5 L 113.92715464735645 3.5 L 120.92715464735645 0 L 113.92715464735645 -3.5 L 113.92715464735645 -0.5 L 92.24482732367822 -0.5 Z"/><text text-anchor="middle" pointer-events="none" font-size="8px" fill="#000000" x="69.46357732367822" y="3" transform="rotate(180 69.46357732367822 0)" font-family="Helvetica Neue, Helvetica, Arial, sans-serif">ACTED_IN</text></g><g class="relationship" transform="translate(-243.81578618102552 6.686847429322236) rotate(306.5353079377637)"><path class="b-outline" fill="#A5ABB6" stroke="none" d="M 25 0.5 L 46.62239577076818 0.5 L 46.62239577076818 -0.5 L 25 -0.5 Z M 92.18489577076818 0.5 L 113.80729154153636 0.5 L 113.80729154153636 3.5 L 120.80729154153636 0 L 113.80729154153636 -3.5 L 113.80729154153636 -0.5 L 92.18489577076818 -0.5 Z"/><text text-anchor="middle" pointer-events="none" font-size="8px" fill="#000000" x="69.40364577076818" y="3" font-family="Helvetica Neue, Helvetica, Arial, sans-serif">ACTED_IN</text></g><g class="relationship" transform="translate(-243.81578618102552 6.686847429322236) rotate(451.08076206142874)"><path class="b-outline" fill="#A5ABB6" stroke="none" d="M 25 0.5 L 46.71435378102869 0.5 L 46.71435378102869 -0.5 L 25 -0.5 Z M 92.27685378102869 0.5 L 113.99120756205738 0.5 L 113.99120756205738 3.5 L 120.99120756205738 0 L 113.99120756205738 -3.5 L 113.99120756205738 -0.5 L 92.27685378102869 -0.5 Z"/><text text-anchor="middle" pointer-events="none" font-size="8px" fill="#000000" x="69.49560378102869" y="3" transform="rotate(180 69.49560378102869 0)" font-family="Helvetica Neue, Helvetica, Arial, sans-serif">ACTED_IN</text></g></g><g class="layer nodes"><g class="node" aria-label="graph-node4" transform="translate(30.316671651962093,235.93027234973928)"><circle class="b-outline" cx="0" cy="0" r="25" fill="#C990C0" stroke="#b261a5" stroke-width="2px"/><text class="caption" text-anchor="middle" pointer-events="none" x="0" y="0" font-size="10px" fill="#FFFFFF" font-family="Helvetica Neue, Helvetica, Arial, sans-serif"> Hugo</text><text class="caption" text-anchor="middle" pointer-events="none" x="0" y="10" font-size="10px" fill="#FFFFFF" font-family="Helvetica Neue, Helvetica, Arial, sans-serif"> Weavi…</text></g><g class="node" aria-label="graph-node105" transform="translate(-84.24081914378479,324.7647338991561)"><circle class="b-outline" cx="0" cy="0" r="25" fill="#F79767" stroke="#f36924" stroke-width="2px"/><text class="caption" text-anchor="middle" pointer-events="none" x="0" y="0" font-size="10px" fill="#FFFFFF" font-family="Helvetica Neue, Helvetica, Arial, sans-serif"> Cloud</text><text class="caption" text-anchor="middle" pointer-events="none" x="0" y="10" font-size="10px" fill="#FFFFFF" font-family="Helvetica Neue, Helvetica, Arial, sans-serif"> Atlas</text></g><g class="node" aria-label="graph-node114" transform="translate(170.70732657248024,278.5821038042194)"><circle class="b-outline" cx="0" cy="0" r="25" fill="#F79767" stroke="#f36924" stroke-width="2px"/><text class="caption" text-anchor="middle" pointer-events="none" x="0" y="0" font-size="10px" fill="#FFFFFF" font-family="Helvetica Neue, Helvetica, Arial, sans-serif"> V for</text><text class="caption" text-anchor="middle" pointer-events="none" x="0" y="10" font-size="10px" fill="#FFFFFF" font-family="Helvetica Neue, Helvetica, Arial, sans-serif"> Vende…</text></g><g class="node" aria-label="graph-node10" transform="translate(71.88556992262329,374.28333911837404)"><circle class="b-outline" cx="0" cy="0" r="25" fill="#F79767" stroke="#f36924" stroke-width="2px"/><text class="caption" text-anchor="middle" pointer-events="none" x="0" y="-5" font-size="10px" fill="#FFFFFF" font-family="Helvetica Neue, Helvetica, Arial, sans-serif"> The</text><text class="caption" text-anchor="middle" pointer-events="none" x="0" y="5" font-size="10px" fill="#FFFFFF" font-family="Helvetica Neue, Helvetica, Arial, sans-serif"> Matrix</text><text class="caption" text-anchor="middle" pointer-events="none" x="0" y="15" font-size="10px" fill="#FFFFFF" font-family="Helvetica Neue, Helvetica, Arial, sans-serif"> Rev…</text></g><g class="node" aria-label="graph-node9" transform="translate(23.669840943485987,92.42954400143122)"><circle class="b-outline" cx="0" cy="0" r="25" fill="#F79767" stroke="#f36924" stroke-width="2px"/><text class="caption" text-anchor="middle" pointer-events="none" x="0" y="-5" font-size="10px" fill="#FFFFFF" font-family="Helvetica Neue, Helvetica, Arial, sans-serif"> The</text><text class="caption" text-anchor="middle" pointer-events="none" x="0" y="5" font-size="10px" fill="#FFFFFF" font-family="Helvetica Neue, Helvetica, Arial, sans-serif"> Matrix</text><text class="caption" text-anchor="middle" pointer-events="none" x="0" y="15" font-size="10px" fill="#FFFFFF" font-family="Helvetica Neue, Helvetica, Arial, sans-serif"> Rel…</text></g><g class="node" aria-label="graph-node0" transform="translate(159.06933623398058,165.45160137629946)"><circle class="b-outline" cx="0" cy="0" r="25" fill="#F79767" stroke="#f36924" stroke-width="2px"/><text class="caption" text-anchor="middle" pointer-events="none" x="0" y="0" font-size="10px" fill="#FFFFFF" font-family="Helvetica Neue, Helvetica, Arial, sans-serif"> The</text><text class="caption" text-anchor="middle" pointer-events="none" x="0" y="10" font-size="10px" fill="#FFFFFF" font-family="Helvetica Neue, Helvetica, Arial, sans-serif"> Matrix</text></g><g class="node" aria-label="graph-node173" transform="translate(246.69589775793145,-147.0233512820451)"><circle class="b-outline" cx="0" cy="0" r="25" fill="#C990C0" stroke="#b261a5" stroke-width="2px"/><text class="caption" text-anchor="middle" pointer-events="none" x="0" y="0" font-size="10px" fill="#FFFFFF" font-family="Helvetica Neue, Helvetica, Arial, sans-serif"> Hugo</text><text class="caption" text-anchor="middle" pointer-events="none" x="0" y="10" font-size="10px" fill="#FFFFFF" font-family="Helvetica Neue, Helvetica, Arial, sans-serif"> Weavi…</text></g><g class="node" aria-label="graph-node179" transform="translate(388.95448984553263,-129.31339523532765)"><circle class="b-outline" cx="0" cy="0" r="25" fill="#F79767" stroke="#f36924" stroke-width="2px"/><text class="caption" text-anchor="middle" pointer-events="none" x="0" y="-5" font-size="10px" fill="#FFFFFF" font-family="Helvetica Neue, Helvetica, Arial, sans-serif"> The</text><text class="caption" text-anchor="middle" pointer-events="none" x="0" y="5" font-size="10px" fill="#FFFFFF" font-family="Helvetica Neue, Helvetica, Arial, sans-serif"> Matrix</text><text class="caption" text-anchor="middle" pointer-events="none" x="0" y="15" font-size="10px" fill="#FFFFFF" font-family="Helvetica Neue, Helvetica, Arial, sans-serif"> Rev…</text></g><g class="node" aria-label="graph-node274" transform="translate(283.9526011021859,-286.9046527197048)"><circle class="b-outline" cx="0" cy="0" r="25" fill="#F79767" stroke="#f36924" stroke-width="2px"/><text class="caption" text-anchor="middle" pointer-events="none" x="0" y="0" font-size="10px" fill="#FFFFFF" font-family="Helvetica Neue, Helvetica, Arial, sans-serif"> Cloud</text><text class="caption" text-anchor="middle" pointer-events="none" x="0" y="10" font-size="10px" fill="#FFFFFF" font-family="Helvetica Neue, Helvetica, Arial, sans-serif"> Atlas</text></g><g class="node" aria-label="graph-node178" transform="translate(106.31860200109169,-192.9302381381663)"><circle class="b-outline" cx="0" cy="0" r="25" fill="#F79767" stroke="#f36924" stroke-width="2px"/><text class="caption" text-anchor="middle" pointer-events="none" x="0" y="-5" font-size="10px" fill="#FFFFFF" font-family="Helvetica Neue, Helvetica, Arial, sans-serif"> The</text><text class="caption" text-anchor="middle" pointer-events="none" x="0" y="5" font-size="10px" fill="#FFFFFF" font-family="Helvetica Neue, Helvetica, Arial, sans-serif"> Matrix</text><text class="caption" text-anchor="middle" pointer-events="none" x="0" y="15" font-size="10px" fill="#FFFFFF" font-family="Helvetica Neue, Helvetica, Arial, sans-serif"> Rel…</text></g><g class="node" aria-label="graph-node285" transform="translate(167.95754038042315,-272.7039079671882)"><circle class="b-outline" cx="0" cy="0" r="25" fill="#F79767" stroke="#f36924" stroke-width="2px"/><text class="caption" text-anchor="middle" pointer-events="none" x="0" y="0" font-size="10px" fill="#FFFFFF" font-family="Helvetica Neue, Helvetica, Arial, sans-serif"> V for</text><text class="caption" text-anchor="middle" pointer-events="none" x="0" y="10" font-size="10px" fill="#FFFFFF" font-family="Helvetica Neue, Helvetica, Arial, sans-serif"> Vende…</text></g><g class="node" aria-label="graph-node169" transform="translate(130.03163157796425,-65.21283145717973)"><circle class="b-outline" cx="0" cy="0" r="25" fill="#F79767" stroke="#f36924" stroke-width="2px"/><text class="caption" text-anchor="middle" pointer-events="none" x="0" y="0" font-size="10px" fill="#FFFFFF" font-family="Helvetica Neue, Helvetica, Arial, sans-serif"> The</text><text class="caption" text-anchor="middle" pointer-events="none" x="0" y="10" font-size="10px" fill="#FFFFFF" font-family="Helvetica Neue, Helvetica, Arial, sans-serif"> Matrix</text></g><g class="node" aria-label="graph-node344" transform="translate(-243.81578618102552,6.686847429322236)"><circle class="b-outline" cx="0" cy="0" r="25" fill="#C990C0" stroke="#b261a5" stroke-width="2px"/><text class="caption" text-anchor="middle" pointer-events="none" x="0" y="0" font-size="10px" fill="#FFFFFF" font-family="Helvetica Neue, Helvetica, Arial, sans-serif"> Hugo</text><text class="caption" text-anchor="middle" pointer-events="none" x="0" y="10" font-size="10px" fill="#FFFFFF" font-family="Helvetica Neue, Helvetica, Arial, sans-serif"> Weavi…</text></g><g class="node" aria-label="graph-node454" transform="translate(-368.5499119366534,-68.21774672489197)"><circle class="b-outline" cx="0" cy="0" r="25" fill="#F79767" stroke="#f36924" stroke-width="2px"/><text class="caption" text-anchor="middle" pointer-events="none" x="0" y="0" font-size="10px" fill="#FFFFFF" font-family="Helvetica Neue, Helvetica, Arial, sans-serif"> V for</text><text class="caption" text-anchor="middle" pointer-events="none" x="0" y="10" font-size="10px" fill="#FFFFFF" font-family="Helvetica Neue, Helvetica, Arial, sans-serif"> Vende…</text></g><g class="node" aria-label="graph-node349" transform="translate(-261.0993060427966,-139.63582295238277)"><circle class="b-outline" cx="0" cy="0" r="25" fill="#F79767" stroke="#f36924" stroke-width="2px"/><text class="caption" text-anchor="middle" pointer-events="none" x="0" y="-5" font-size="10px" fill="#FFFFFF" font-family="Helvetica Neue, Helvetica, Arial, sans-serif"> The</text><text class="caption" text-anchor="middle" pointer-events="none" x="0" y="5" font-size="10px" fill="#FFFFFF" font-family="Helvetica Neue, Helvetica, Arial, sans-serif"> Matrix</text><text class="caption" text-anchor="middle" pointer-events="none" x="0" y="15" font-size="10px" fill="#FFFFFF" font-family="Helvetica Neue, Helvetica, Arial, sans-serif"> Rel…</text></g><g class="node" aria-label="graph-node340" transform="translate(-368.93776596670233,81.78161847222623)"><circle class="b-outline" cx="0" cy="0" r="25" fill="#F79767" stroke="#f36924" stroke-width="2px"/><text class="caption" text-anchor="middle" pointer-events="none" x="0" y="0" font-size="10px" fill="#FFFFFF" font-family="Helvetica Neue, Helvetica, Arial, sans-serif"> The</text><text class="caption" text-anchor="middle" pointer-events="none" x="0" y="10" font-size="10px" fill="#FFFFFF" font-family="Helvetica Neue, Helvetica, Arial, sans-serif"> Matrix</text></g><g class="node" aria-label="graph-node350" transform="translate(-157.01407482142778,-110.46787578627699)"><circle class="b-outline" cx="0" cy="0" r="25" fill="#F79767" stroke="#f36924" stroke-width="2px"/><text class="caption" text-anchor="middle" pointer-events="none" x="0" y="-5" font-size="10px" fill="#FFFFFF" font-family="Helvetica Neue, Helvetica, Arial, sans-serif"> The</text><text class="caption" text-anchor="middle" pointer-events="none" x="0" y="5" font-size="10px" fill="#FFFFFF" font-family="Helvetica Neue, Helvetica, Arial, sans-serif"> Matrix</text><text class="caption" text-anchor="middle" pointer-events="none" x="0" y="15" font-size="10px" fill="#FFFFFF" font-family="Helvetica Neue, Helvetica, Arial, sans-serif"> Rev…</text></g><g class="node" aria-label="graph-node445" transform="translate(-246.56943406383462,152.65208338900277)"><circle class="b-outline" cx="0" cy="0" r="25" fill="#F79767" stroke="#f36924" stroke-width="2px"/><text class="caption" text-anchor="middle" pointer-events="none" x="0" y="0" font-size="10px" fill="#FFFFFF" font-family="Helvetica Neue, Helvetica, Arial, sans-serif"> Cloud</text><text class="caption" text-anchor="middle" pointer-events="none" x="0" y="10" font-size="10px" fill="#FFFFFF" font-family="Helvetica Neue, Helvetica, Arial, sans-serif"> Atlas</text></g></g></svg>