<svg xmlns="http://www.w3.org/2000/svg" width="350.4013366699219" height="351.6719055175781" viewBox="-165.47561645507812 -164.3502655029297 350.4013366699219 351.6719055175781"><title>Neo4j Graph Visualization</title><desc>Created using Neo4j (http://www.neo4j.com/)</desc><g class="layer relationships"><g class="relationship" transform="translate(58.92881325074459 158.32164274484546) rotate(250.9011650459912)"><path class="b-outline" fill="#A5ABB6" stroke="none" d="M 25 0.5 L 49.761237091845985 0.5 L 49.761237091845985 -0.5 L 25 -0.5 Z M 95.32373709184598 0.5 L 120.08497418369197 0.5 L 120.08497418369197 3.5 L 127.08497418369197 0 L 120.08497418369197 -3.5 L 120.08497418369197 -0.5 L 95.32373709184598 -0.5 Z"/><text text-anchor="middle" pointer-events="none" font-size="8px" fill="#000000" x="72.54248709184598" y="3" transform="rotate(180 72.54248709184598 0)" font-family="Helvetica Neue, Helvetica, Arial, sans-serif">ACTED_IN</text></g><g class="relationship" transform="translate(155.92572537008093 -13.719679026551495) rotate(529.0749810007196)"><path class="b-outline" fill="#A5ABB6" stroke="none" d="M 25 0.5 L 48.452681998466815 0.5 L 48.452681998466815 -0.5 L 25 -0.5 Z M 94.01518199846682 0.5 L 117.46786399693363 0.5 L 117.46786399693363 3.5 L 124.46786399693363 0 L 117.46786399693363 -3.5 L 117.46786399693363 -0.5 L 94.01518199846682 -0.5 Z"/><text text-anchor="middle" pointer-events="none" font-size="8px" fill="#000000" x="71.23393199846682" y="3" transform="rotate(180 71.23393199846682 0)" font-family="Helvetica Neue, Helvetica, Arial, sans-serif">ACTED_IN</text></g><g class="relationship" transform="translate(105.52806439182001 -100.05240670207002) rotate(490.04385913591574)"><path class="b-outline" fill="#A5ABB6" stroke="none" d="M 25 0.5 L 48.60620418392968 0.5 L 48.60620418392968 -0.5 L 25 -0.5 Z M 94.16870418392968 0.5 L 117.77490836785935 0.5 L 117.77490836785935 3.5 L 124.77490836785935 0 L 117.77490836785935 -3.5 L 117.77490836785935 -0.5 L 94.16870418392968 -0.5 Z"/><text text-anchor="middle" pointer-events="none" font-size="8px" fill="#000000" x="71.38745418392968" y="3" transform="rotate(180 71.38745418392968 0)" font-family="Helvetica Neue, Helvetica, Arial, sans-serif">ACTED_IN</text></g><g class="relationship" transform="translate(12.299824036523589 -135.35026102376173) rotate(451.1968814640865)"><path class="b-outline" fill="#A5ABB6" stroke="none" d="M 25 0.5 L 48.05023037456658 0.5 L 48.05023037456658 -0.5 L 25 -0.5 Z M 94.94085537456658 0.5 L 117.99108574913316 0.5 L 117.99108574913316 3.5 L 124.99108574913316 0 L 117.99108574913316 -3.5 L 117.99108574913316 -0.5 L 94.94085537456658 -0.5 Z"/><text text-anchor="middle" pointer-events="none" font-size="8px" fill="#000000" x="71.49554287456658" y="3" transform="rotate(180 71.49554287456658 0)" font-family="Helvetica Neue, Helvetica, Arial, sans-serif">DIRECTED</text></g><g class="relationship" transform="translate(-82.34552565871074 -104.04546606486863) rotate(412.3585602256456)"><path class="b-outline" fill="#A5ABB6" stroke="none" d="M 25 0.5 L 48.640669797986504 0.5 L 48.640669797986504 -0.5 L 25 -0.5 Z M 94.2031697979865 0.5 L 117.84383959597301 0.5 L 117.84383959597301 3.5 L 124.84383959597301 0 L 117.84383959597301 -3.5 L 117.84383959597301 -0.5 L 94.2031697979865 -0.5 Z"/><text text-anchor="middle" pointer-events="none" font-size="8px" fill="#000000" x="71.4219197979865" y="3" font-family="Helvetica Neue, Helvetica, Arial, sans-serif">ACTED_IN</text></g><g class="relationship" transform="translate(-136.47561900358406 -20.319514320198454) rotate(373.4858500136629)"><path class="b-outline" fill="#A5ABB6" stroke="none" d="M 25 0.5 L 53.4992867845382 0.5 L 53.4992867845382 -0.5 L 25 -0.5 Z M 89.2727242845382 0.5 L 117.7720110690764 0.5 L 117.7720110690764 3.5 L 124.7720110690764 0 L 117.7720110690764 -3.5 L 117.7720110690764 -0.5 L 89.2727242845382 -0.5 Z"/><text text-anchor="middle" pointer-events="none" font-size="8px" fill="#000000" x="71.3860055345382" y="3" font-family="Helvetica Neue, Helvetica, Arial, sans-serif">WROTE</text></g><g class="relationship" transform="translate(-125.56383843598125 79.11089403835798) rotate(334.41705935567006)"><path class="b-outline" fill="#A5ABB6" stroke="none" d="M 25 0.5 L 53.30089403336707 0.5 L 53.30089403336707 -0.5 L 25 -0.5 Z M 89.07433153336707 0.5 L 117.37522556673414 0.5 L 117.37522556673414 3.5 L 124.37522556673414 0 L 117.37522556673414 -3.5 L 117.37522556673414 -0.5 L 89.07433153336707 -0.5 Z"/><text text-anchor="middle" pointer-events="none" font-size="8px" fill="#000000" x="71.18761278336707" y="3" font-family="Helvetica Neue, Helvetica, Arial, sans-serif">WROTE</text></g><g class="relationship" transform="translate(-50.60139489920007 151.1602241365843) rotate(293.6387627678009)"><path class="b-outline" fill="#A5ABB6" stroke="none" d="M 25 0.5 L 48.24847713983448 0.5 L 48.24847713983448 -0.5 L 25 -0.5 Z M 93.81097713983448 0.5 L 117.05945427966896 0.5 L 117.05945427966896 3.5 L 124.05945427966896 0 L 117.05945427966896 -3.5 L 117.05945427966896 -0.5 L 93.81097713983448 -0.5 Z"/><text text-anchor="middle" pointer-events="none" font-size="8px" fill="#000000" x="71.02972713983448" y="3" font-family="Helvetica Neue, Helvetica, Arial, sans-serif">ACTED_IN</text></g><g class="relationship" transform="translate(138.61770765406456 88.54439475905949) rotate(209.7329860688372)"><path class="b-outline" fill="#A5ABB6" stroke="none" d="M 25 0.5 L 48.2575161746049 0.5 L 48.2575161746049 -0.5 L 25 -0.5 Z M 93.8200161746049 0.5 L 117.0775323492098 0.5 L 117.0775323492098 3.5 L 124.0775323492098 0 L 117.0775323492098 -3.5 L 117.0775323492098 -0.5 L 93.8200161746049 -0.5 Z"/><text text-anchor="middle" pointer-events="none" font-size="8px" fill="#000000" x="71.0387661746049" y="3" transform="rotate(180 71.0387661746049 0)" font-family="Helvetica Neue, Helvetica, Arial, sans-serif">ACTED_IN</text></g></g><g class="layer nodes"><g class="node" aria-label="graph-node554" transform="translate(155.92572537008093,-13.719679026551495)"><circle class="b-outline" cx="0" cy="0" r="25" fill="#C990C0" stroke="#b261a5" stroke-width="2px"/><text class="caption" text-anchor="middle" pointer-events="none" x="0" y="0" font-size="10px" fill="#FFFFFF" font-family="Helvetica Neue, Helvetica, Arial, sans-serif"> Sebastian</text><text class="caption" text-anchor="middle" pointer-events="none" x="0" y="10" font-size="10px" fill="#FFFFFF" font-family="Helvetica Neue, Helvetica, Arial, sans-serif"> Stan</text></g><g class="node" aria-label="graph-node551" transform="translate(105.52806439182001,-100.05240670207002)"><circle class="b-outline" cx="0" cy="0" r="25" fill="#C990C0" stroke="#b261a5" stroke-width="2px"/><text class="caption" text-anchor="middle" pointer-events="none" x="0" y="0" font-size="10px" fill="#FFFFFF" font-family="Helvetica Neue, Helvetica, Arial, sans-serif"> Chris</text><text class="caption" text-anchor="middle" pointer-events="none" x="0" y="10" font-size="10px" fill="#FFFFFF" font-family="Helvetica Neue, Helvetica, Arial, sans-serif"> Evans</text></g><g class="node" aria-label="graph-node548" transform="translate(12.299824036523589,-135.35026102376173)"><circle class="b-outline" cx="0" cy="0" r="25" fill="#C990C0" stroke="#b261a5" stroke-width="2px"/><text class="caption" text-anchor="middle" pointer-events="none" x="0" y="0" font-size="10px" fill="#FFFFFF" font-family="Helvetica Neue, Helvetica, Arial, sans-serif"> Joe</text><text class="caption" text-anchor="middle" pointer-events="none" x="0" y="10" font-size="10px" fill="#FFFFFF" font-family="Helvetica Neue, Helvetica, Arial, sans-serif"> Johnst…</text></g><g class="node" aria-label="graph-node555" transform="translate(-82.34552565871074,-104.04546606486863)"><circle class="b-outline" cx="0" cy="0" r="25" fill="#C990C0" stroke="#b261a5" stroke-width="2px"/><text class="caption" text-anchor="middle" pointer-events="none" x="0" y="0" font-size="10px" fill="#FFFFFF" font-family="Helvetica Neue, Helvetica, Arial, sans-serif"> Tommy</text><text class="caption" text-anchor="middle" pointer-events="none" x="0" y="10" font-size="10px" fill="#FFFFFF" font-family="Helvetica Neue, Helvetica, Arial, sans-serif"> J…</text></g><g class="node" aria-label="graph-node550" transform="translate(-136.47561900358406,-20.319514320198454)"><circle class="b-outline" cx="0" cy="0" r="25" fill="#C990C0" stroke="#b261a5" stroke-width="2px"/><text class="caption" text-anchor="middle" pointer-events="none" x="0" y="0" font-size="10px" fill="#FFFFFF" font-family="Helvetica Neue, Helvetica, Arial, sans-serif"> Stephen</text><text class="caption" text-anchor="middle" pointer-events="none" x="0" y="10" font-size="10px" fill="#FFFFFF" font-family="Helvetica Neue, Helvetica, Arial, sans-serif"> McFe…</text></g><g class="node" aria-label="graph-node549" transform="translate(-125.56383843598125,79.11089403835798)"><circle class="b-outline" cx="0" cy="0" r="25" fill="#C990C0" stroke="#b261a5" stroke-width="2px"/><text class="caption" text-anchor="middle" pointer-events="none" x="0" y="5" font-size="10px" fill="#FFFFFF" font-family="Helvetica Neue, Helvetica, Arial, sans-serif"> Christop…</text></g><g class="node" aria-label="graph-node553" transform="translate(-50.60139489920007,151.1602241365843)"><circle class="b-outline" cx="0" cy="0" r="25" fill="#C990C0" stroke="#b261a5" stroke-width="2px"/><text class="caption" text-anchor="middle" pointer-events="none" x="0" y="0" font-size="10px" fill="#FFFFFF" font-family="Helvetica Neue, Helvetica, Arial, sans-serif"> Hayley</text><text class="caption" text-anchor="middle" pointer-events="none" x="0" y="10" font-size="10px" fill="#FFFFFF" font-family="Helvetica Neue, Helvetica, Arial, sans-serif"> Atwell</text></g><g class="node" aria-label="graph-node552" transform="translate(138.61770765406456,88.54439475905949)"><circle class="b-outline" cx="0" cy="0" r="25" fill="#C990C0" stroke="#b261a5" stroke-width="2px"/><text class="caption" text-anchor="middle" pointer-events="none" x="0" y="0" font-size="10px" fill="#FFFFFF" font-family="Helvetica Neue, Helvetica, Arial, sans-serif"> Samuel L.</text><text class="caption" text-anchor="middle" pointer-events="none" x="0" y="10" font-size="10px" fill="#FFFFFF" font-family="Helvetica Neue, Helvetica, Arial, sans-serif"> Jackson</text></g><g class="node" aria-label="graph-node4" transform="translate(58.92881325074459,158.32164274484546)"><circle class="b-outline" cx="0" cy="0" r="25" fill="#C990C0" stroke="#b261a5" stroke-width="2px"/><text class="caption" text-anchor="middle" pointer-events="none" x="0" y="0" font-size="10px" fill="#FFFFFF" font-family="Helvetica Neue, Helvetica, Arial, sans-serif"> Hugo</text><text class="caption" text-anchor="middle" pointer-events="none" x="0" y="10" font-size="10px" fill="#FFFFFF" font-family="Helvetica Neue, Helvetica, Arial, sans-serif"> Weavi…</text></g><g class="node" aria-label="graph-node547" transform="translate(9.166809776930789,14.608099949719868)"><circle class="b-outline" cx="0" cy="0" r="25" fill="#F79767" stroke="#f36924" stroke-width="2px"/><text class="caption" text-anchor="middle" pointer-events="none" x="0" y="-5" font-size="10px" fill="#FFFFFF" font-family="Helvetica Neue, Helvetica, Arial, sans-serif"> Captain</text><text class="caption" text-anchor="middle" pointer-events="none" x="0" y="5" font-size="10px" fill="#FFFFFF" font-family="Helvetica Neue, Helvetica, Arial, sans-serif"> America:</text><text class="caption" text-anchor="middle" pointer-events="none" x="0" y="15" font-size="10px" fill="#FFFFFF" font-family="Helvetica Neue, Helvetica, Arial, sans-serif"> Th</text></g></g></svg>